<svg width="13" height="13" viewBox="0 0 13 13" fill="none" xmlns="http://www.w3.org/2000/svg">
<path fill-rule="evenodd" clip-rule="evenodd" d="M10.9999 6.33331C10.9999 8.91065 8.91059 11 6.33325 11C3.75593 11 1.66659 8.91065 1.66659 6.33331C1.66659 3.75599 3.75593 1.66665 6.33325 1.66665C8.91059 1.66665 10.9999 3.75599 10.9999 6.33331ZM11.0212 10.0784C11.8423 9.05198 12.3333 7.74998 12.3333 6.33331C12.3333 3.01961 9.64699 0.333313 6.33325 0.333313C3.01955 0.333313 0.333252 3.01961 0.333252 6.33331C0.333252 9.64705 3.01955 12.3333 6.33325 12.3333C7.74992 12.3333 9.05192 11.8423 10.0784 11.0212L11.8619 12.8047C12.1222 13.065 12.5443 13.065 12.8047 12.8047C13.065 12.5444 13.065 12.1222 12.8047 11.8619L11.0212 10.0784Z" fill="#302E45"/>
</svg>
